<svg xmlns="http://www.w3.org/2000/svg" xmlns:xlink="http://www.w3.org/1999/xlink" width="240" zoomAndPan="magnify" viewBox="0 0 180 202.499994" height="270" preserveAspectRatio="xMidYMid meet" version="1.0"><defs><g/><clipPath id="d803c4e3a3"><path d="M 0.222656 0 L 179.777344 0 L 179.777344 202 L 0.222656 202 Z M 0.222656 0 " clip-rule="nonzero"/></clipPath></defs><g clip-path="url(#d803c4e3a3)"><path fill="#ffffff" d="M 0.222656 0 L 179.777344 0 L 179.777344 202 L 0.222656 202 Z M 0.222656 0 " fill-opacity="1" fill-rule="nonzero"/><path fill="#05050b" d="M 0.222656 0 L 179.777344 0 L 179.777344 202 L 0.222656 202 Z M 0.222656 0 " fill-opacity="1" fill-rule="nonzero"/></g><g fill="#ffffff" fill-opacity="1"><g transform="translate(20.246401, 137.677779)"><g><path d="M 95.894531 -1.832031 L 49.476562 -121.246094 C 49.015625 -122.464844 46.878906 -122.464844 46.421875 -121.246094 L 0.152344 -1.832031 C -0.304688 -0.917969 0.304688 0 1.679688 0 L 22.601562 0 C 23.210938 0 23.972656 -0.304688 24.125 -0.917969 L 47.949219 -69.019531 L 72.074219 -0.917969 C 72.226562 -0.304688 72.992188 0 73.449219 0 L 94.523438 0 C 95.589844 0 96.355469 -0.917969 95.894531 -1.832031 Z M 95.894531 -1.832031 "/></g></g></g><g fill="#ffffff" fill-opacity="1"><g transform="translate(77.55575, 179.03162)"><g><path d="M 63.132812 -20.308594 C 49.734375 -19.753906 21.273438 -21.136719 21.273438 -55.257812 C 21.273438 -81.507812 39.097656 -91.59375 63.132812 -90.347656 L 63.132812 -65.898438 L 84.269531 -65.898438 L 84.269531 -109.273438 C 84.269531 -109.828125 83.71875 -110.519531 82.75 -110.519531 L 64.792969 -110.519531 C 37.714844 -110.519531 0 -104.300781 0 -55.257812 C 0 -8.011719 37.300781 0 64.792969 0 L 82.75 0 C 83.71875 0 84.269531 -0.691406 84.269531 -1.242188 L 84.269531 -20.308594 Z M 63.132812 -20.308594 "/></g></g></g><g fill="#ffffff" fill-opacity="1"><g transform="translate(19.264528, 149.868494)"><g><path d="M 1.65625 0 L -0.03125 0 L 2.375 -6.515625 L 4.046875 -6.515625 L 6.40625 0 L 4.71875 0 L 4.375 -1.09375 L 2 -1.09375 Z M 3.171875 -4.921875 C 3.117188 -4.722656 3.0625 -4.515625 3 -4.296875 C 2.9375 -4.078125 2.828125 -3.722656 2.671875 -3.234375 L 2.40625 -2.375 L 3.96875 -2.375 L 3.703125 -3.234375 C 3.609375 -3.492188 3.515625 -3.769531 3.421875 -4.0625 C 3.335938 -4.363281 3.253906 -4.648438 3.171875 -4.921875 Z M 3.171875 -4.921875 "/></g></g></g><g fill="#ffffff" fill-opacity="1"><g transform="translate(29.017457, 149.868494)"><g><path d="M 4.421875 -2.75 L 4.421875 -6.515625 L 6.03125 -6.515625 L 6.03125 -2.75 C 6.03125 -1.789062 5.796875 -1.070312 5.328125 -0.59375 C 4.867188 -0.125 4.175781 0.109375 3.25 0.109375 C 2.269531 0.109375 1.554688 -0.113281 1.109375 -0.5625 C 0.671875 -1.019531 0.453125 -1.75 0.453125 -2.75 L 0.453125 -6.515625 L 2.0625 -6.515625 L 2.0625 -2.75 C 2.0625 -2.21875 2.140625 -1.859375 2.296875 -1.671875 C 2.460938 -1.492188 2.78125 -1.40625 3.25 -1.40625 C 3.71875 -1.40625 4.03125 -1.492188 4.1875 -1.671875 C 4.34375 -1.859375 4.421875 -2.21875 4.421875 -2.75 Z M 4.421875 -2.75 "/></g></g></g><g fill="#ffffff" fill-opacity="1"><g transform="translate(38.863814, 149.868494)"><g><path d="M 2.96875 -2.4375 L 1.65625 -2.75 C 1.125 -2.875 0.765625 -3.0625 0.578125 -3.3125 C 0.390625 -3.570312 0.296875 -3.941406 0.296875 -4.421875 C 0.296875 -5.171875 0.492188 -5.722656 0.890625 -6.078125 C 1.285156 -6.441406 1.90625 -6.625 2.75 -6.625 C 3.09375 -6.625 3.398438 -6.609375 3.671875 -6.578125 C 3.941406 -6.546875 4.191406 -6.5 4.421875 -6.4375 L 4.421875 -4.984375 C 3.890625 -5.078125 3.523438 -5.128906 3.328125 -5.140625 C 3.128906 -5.160156 2.925781 -5.171875 2.71875 -5.171875 C 2.425781 -5.171875 2.210938 -5.117188 2.078125 -5.015625 C 1.941406 -4.921875 1.875 -4.757812 1.875 -4.53125 C 1.875 -4.414062 1.894531 -4.328125 1.9375 -4.265625 C 1.976562 -4.210938 2.0625 -4.171875 2.1875 -4.140625 L 3.421875 -3.859375 C 3.785156 -3.773438 4.046875 -3.691406 4.203125 -3.609375 C 4.367188 -3.523438 4.5 -3.421875 4.59375 -3.296875 C 4.707031 -3.171875 4.789062 -3.003906 4.84375 -2.796875 C 4.894531 -2.585938 4.921875 -2.332031 4.921875 -2.03125 C 4.921875 -1.28125 4.71875 -0.734375 4.3125 -0.390625 C 3.90625 -0.0546875 3.28125 0.109375 2.4375 0.109375 C 2.007812 0.109375 1.601562 0.0820312 1.21875 0.03125 C 0.832031 -0.0195312 0.53125 -0.0859375 0.3125 -0.171875 L 0.3125 -1.6875 C 0.59375 -1.601562 0.921875 -1.535156 1.296875 -1.484375 C 1.679688 -1.429688 2.0625 -1.40625 2.4375 -1.40625 C 2.75 -1.40625 2.960938 -1.441406 3.078125 -1.515625 C 3.191406 -1.585938 3.25 -1.738281 3.25 -1.96875 C 3.25 -2.113281 3.226562 -2.21875 3.1875 -2.28125 C 3.15625 -2.351562 3.082031 -2.40625 2.96875 -2.4375 Z M 2.96875 -2.4375 "/></g></g></g><g fill="#ffffff" fill-opacity="1"><g transform="translate(47.308788, 149.868494)"><g><path d="M 5.28125 -6.515625 L 5.28125 -5.0625 L 3.515625 -5.0625 L 3.515625 0 L 1.90625 0 L 1.90625 -5.0625 L 0.125 -5.0625 L 0.125 -6.515625 Z M 5.28125 -6.515625 "/></g></g></g><g fill="#ffffff" fill-opacity="1"><g transform="translate(56.085943, 149.868494)"><g><path d="M 2.109375 -6.515625 L 2.109375 0 L 0.5 0 L 0.5 -6.515625 Z M 2.109375 -6.515625 "/></g></g></g><g fill="#ffffff" fill-opacity="1"><g transform="translate(62.060322, 149.868494)"><g><path d="M 6.125 -6.515625 L 6.125 0 L 4.578125 0 L 2 -3.765625 L 2 0 L 0.5 0 L 0.5 -6.515625 L 2.03125 -6.515625 L 4.609375 -2.609375 L 4.609375 -6.515625 Z M 6.125 -6.515625 "/></g></g></g><g fill="#ffffff" fill-opacity="1"><g transform="translate(128.645675, 64.234532)"><g><path d="M 3.328125 -1.40625 C 3.597656 -1.40625 3.894531 -1.429688 4.21875 -1.484375 C 4.550781 -1.546875 4.847656 -1.625 5.109375 -1.71875 L 5.109375 -0.296875 C 4.722656 -0.148438 4.375 -0.046875 4.0625 0.015625 C 3.757812 0.078125 3.441406 0.109375 3.109375 0.109375 C 2.515625 0.109375 2.035156 0.0390625 1.671875 -0.09375 C 1.304688 -0.238281 1.019531 -0.460938 0.8125 -0.765625 C 0.632812 -1.023438 0.5 -1.359375 0.40625 -1.765625 C 0.320312 -2.179688 0.28125 -2.679688 0.28125 -3.265625 C 0.28125 -4.429688 0.53125 -5.28125 1.03125 -5.8125 C 1.53125 -6.351562 2.328125 -6.625 3.421875 -6.625 C 3.742188 -6.625 4.03125 -6.613281 4.28125 -6.59375 C 4.53125 -6.582031 4.753906 -6.5625 4.953125 -6.53125 L 4.953125 -5.125 C 4.722656 -5.132812 4.484375 -5.144531 4.234375 -5.15625 C 3.992188 -5.164062 3.722656 -5.171875 3.421875 -5.171875 C 3.046875 -5.171875 2.765625 -5.132812 2.578125 -5.0625 C 2.398438 -4.988281 2.265625 -4.859375 2.171875 -4.671875 C 2.085938 -4.535156 2.023438 -4.351562 1.984375 -4.125 C 1.953125 -3.894531 1.9375 -3.609375 1.9375 -3.265625 C 1.9375 -2.941406 1.953125 -2.671875 1.984375 -2.453125 C 2.015625 -2.234375 2.066406 -2.050781 2.140625 -1.90625 C 2.234375 -1.71875 2.363281 -1.585938 2.53125 -1.515625 C 2.707031 -1.441406 2.972656 -1.40625 3.328125 -1.40625 Z M 3.328125 -1.40625 "/></g></g></g><g fill="#ffffff" fill-opacity="1"><g transform="translate(134.449316, 64.234532)"><g><path d="M 1.65625 0 L -0.03125 0 L 2.375 -6.515625 L 4.046875 -6.515625 L 6.40625 0 L 4.71875 0 L 4.375 -1.09375 L 2 -1.09375 Z M 3.171875 -4.921875 C 3.117188 -4.722656 3.0625 -4.515625 3 -4.296875 C 2.9375 -4.078125 2.828125 -3.722656 2.671875 -3.234375 L 2.40625 -2.375 L 3.96875 -2.375 L 3.703125 -3.234375 C 3.609375 -3.492188 3.515625 -3.769531 3.421875 -4.0625 C 3.335938 -4.363281 3.253906 -4.648438 3.171875 -4.921875 Z M 3.171875 -4.921875 "/></g></g></g><g fill="#ffffff" fill-opacity="1"><g transform="translate(141.363679, 64.234532)"><g><path d="M 2.109375 -2.09375 L 2.109375 0 L 0.5 0 L 0.5 -6.515625 L 2.875 -6.515625 C 3.882812 -6.515625 4.597656 -6.34375 5.015625 -6 C 5.441406 -5.664062 5.65625 -5.101562 5.65625 -4.3125 C 5.65625 -3.78125 5.539062 -3.34375 5.3125 -3 C 5.09375 -2.664062 4.753906 -2.425781 4.296875 -2.28125 L 5.875 0 L 3.953125 0 L 2.59375 -2.09375 Z M 4.015625 -4.3125 C 4.015625 -4.59375 3.929688 -4.785156 3.765625 -4.890625 C 3.597656 -5.003906 3.300781 -5.0625 2.875 -5.0625 L 2.109375 -5.0625 L 2.109375 -3.390625 L 2.875 -3.390625 C 3.300781 -3.390625 3.597656 -3.457031 3.765625 -3.59375 C 3.929688 -3.726562 4.015625 -3.96875 4.015625 -4.3125 Z M 4.015625 -4.3125 "/></g></g></g><g fill="#ffffff" fill-opacity="1"><g transform="translate(147.883577, 64.234532)"><g><path d="M 6.40625 -3.265625 C 6.40625 -2.078125 6.164062 -1.21875 5.6875 -0.6875 C 5.207031 -0.15625 4.425781 0.109375 3.34375 0.109375 C 2.21875 0.109375 1.425781 -0.140625 0.96875 -0.640625 C 0.507812 -1.140625 0.28125 -2.015625 0.28125 -3.265625 C 0.28125 -4.453125 0.519531 -5.304688 1 -5.828125 C 1.476562 -6.359375 2.257812 -6.625 3.34375 -6.625 C 4.476562 -6.625 5.269531 -6.375 5.71875 -5.875 C 6.175781 -5.375 6.40625 -4.503906 6.40625 -3.265625 Z M 2.109375 -1.875 C 2.203125 -1.695312 2.335938 -1.570312 2.515625 -1.5 C 2.691406 -1.4375 2.96875 -1.40625 3.34375 -1.40625 C 3.726562 -1.40625 4.007812 -1.4375 4.1875 -1.5 C 4.363281 -1.570312 4.492188 -1.695312 4.578125 -1.875 C 4.648438 -2.007812 4.703125 -2.1875 4.734375 -2.40625 C 4.765625 -2.632812 4.78125 -2.921875 4.78125 -3.265625 C 4.78125 -3.617188 4.765625 -3.90625 4.734375 -4.125 C 4.703125 -4.351562 4.648438 -4.535156 4.578125 -4.671875 C 4.492188 -4.859375 4.363281 -4.988281 4.1875 -5.0625 C 4.007812 -5.132812 3.726562 -5.171875 3.34375 -5.171875 C 2.957031 -5.171875 2.675781 -5.132812 2.5 -5.0625 C 2.320312 -4.988281 2.191406 -4.859375 2.109375 -4.671875 C 2.035156 -4.535156 1.984375 -4.351562 1.953125 -4.125 C 1.921875 -3.90625 1.90625 -3.617188 1.90625 -3.265625 C 1.90625 -2.921875 1.921875 -2.632812 1.953125 -2.40625 C 1.984375 -2.1875 2.035156 -2.007812 2.109375 -1.875 Z M 2.109375 -1.875 "/></g></g></g><g fill="#ffffff" fill-opacity="1"><g transform="translate(155.098978, 64.234532)"><g><path d="M 6.125 -6.515625 L 6.125 0 L 4.578125 0 L 2 -3.765625 L 2 0 L 0.5 0 L 0.5 -6.515625 L 2.03125 -6.515625 L 4.609375 -2.609375 L 4.609375 -6.515625 Z M 6.125 -6.515625 "/></g></g></g></svg>